<mxfile host="app.diagrams.net" modified="2023-12-11T12:39:41.155Z" agent="Mozilla/5.0 (Windows NT 10.0; Win64; x64) AppleWebKit/537.36 (KHTML, like Gecko) Chrome/118.0.5993.732 YaBrowser/23.11.1.732 Yowser/2.5 Safari/537.36" etag="JL2r8HUmmqEYMefcQ8LM" version="22.1.7" type="github">
  <diagram name="Страница — 1" id="8aTEOe-QuroDj3xyR8eQ">
    <mxGraphModel dx="1459" dy="824" grid="1" gridSize="10" guides="1" tooltips="1" connect="1" arrows="1" fold="1" page="1" pageScale="1" pageWidth="1169" pageHeight="827" math="0" shadow="0">
      <root>
        <mxCell id="0" />
        <mxCell id="1" parent="0" />
        <mxCell id="AYj9zMjsYxJNHYWbNuNB-19" value="White label dApp" style="rounded=0;whiteSpace=wrap;html=1;gradientColor=none;fillColor=none;dashed=1;dashPattern=12 12;verticalAlign=top;" vertex="1" parent="1">
          <mxGeometry x="40" y="350" width="720" height="440" as="geometry" />
        </mxCell>
        <mxCell id="AYj9zMjsYxJNHYWbNuNB-7" value="&lt;b&gt;Распространение / Distribution&lt;/b&gt;" style="swimlane;fontStyle=0;childLayout=stackLayout;horizontal=1;startSize=40;horizontalStack=0;resizeParent=1;resizeParentMax=0;resizeLast=0;collapsible=1;marginBottom=0;whiteSpace=wrap;html=1;" vertex="1" parent="1">
          <mxGeometry x="440" y="390" width="280" height="240" as="geometry" />
        </mxCell>
        <mxCell id="AYj9zMjsYxJNHYWbNuNB-8" value="Выпуск STO / STO generation" style="text;strokeColor=none;fillColor=none;align=left;verticalAlign=middle;spacingLeft=4;spacingRight=4;overflow=hidden;points=[[0,0.5],[1,0.5]];portConstraint=eastwest;rotatable=0;whiteSpace=wrap;html=1;fontColor=#000000;" vertex="1" parent="AYj9zMjsYxJNHYWbNuNB-7">
          <mxGeometry y="40" width="280" height="30" as="geometry" />
        </mxCell>
        <mxCell id="AYj9zMjsYxJNHYWbNuNB-45" value="Взаимодействие с биржами / Marketplace operation" style="text;strokeColor=none;fillColor=none;align=left;verticalAlign=middle;spacingLeft=4;spacingRight=4;overflow=hidden;points=[[0,0.5],[1,0.5]];portConstraint=eastwest;rotatable=0;whiteSpace=wrap;html=1;labelBackgroundColor=default;fontColor=#000000;" vertex="1" parent="AYj9zMjsYxJNHYWbNuNB-7">
          <mxGeometry y="70" width="280" height="30" as="geometry" />
        </mxCell>
        <mxCell id="AYj9zMjsYxJNHYWbNuNB-27" value="Первичная или вторичная продажа токенов /&amp;nbsp;Primary or Secondary Marketplace" style="text;strokeColor=none;fillColor=none;align=left;verticalAlign=middle;spacingLeft=4;spacingRight=4;overflow=hidden;points=[[0,0.5],[1,0.5]];portConstraint=eastwest;rotatable=0;whiteSpace=wrap;html=1;fontColor=#000000;" vertex="1" parent="AYj9zMjsYxJNHYWbNuNB-7">
          <mxGeometry y="100" width="280" height="40" as="geometry" />
        </mxCell>
        <mxCell id="AYj9zMjsYxJNHYWbNuNB-35" value="Выполнение требований KYC/ AML при покупке-продаже токенов / KYC/ AML compliance of buy-sell opearations" style="text;strokeColor=none;fillColor=none;align=left;verticalAlign=middle;spacingLeft=4;spacingRight=4;overflow=hidden;points=[[0,0.5],[1,0.5]];portConstraint=eastwest;rotatable=0;whiteSpace=wrap;html=1;fontColor=#000000;" vertex="1" parent="AYj9zMjsYxJNHYWbNuNB-7">
          <mxGeometry y="140" width="280" height="60" as="geometry" />
        </mxCell>
        <mxCell id="AYj9zMjsYxJNHYWbNuNB-46" value="Обеспечение безопасности / Security" style="text;strokeColor=none;fillColor=none;align=left;verticalAlign=middle;spacingLeft=4;spacingRight=4;overflow=hidden;points=[[0,0.5],[1,0.5]];portConstraint=eastwest;rotatable=0;whiteSpace=wrap;html=1;fontColor=#000000;" vertex="1" parent="AYj9zMjsYxJNHYWbNuNB-7">
          <mxGeometry y="200" width="280" height="40" as="geometry" />
        </mxCell>
        <mxCell id="AYj9zMjsYxJNHYWbNuNB-13" value="&lt;b&gt;Токенизация / Tokenization&lt;/b&gt;" style="swimlane;fontStyle=0;childLayout=stackLayout;horizontal=1;startSize=40;horizontalStack=0;resizeParent=1;resizeParentMax=0;resizeLast=0;collapsible=1;marginBottom=0;whiteSpace=wrap;html=1;" vertex="1" parent="1">
          <mxGeometry x="80" y="390" width="280" height="320" as="geometry" />
        </mxCell>
        <mxCell id="AYj9zMjsYxJNHYWbNuNB-14" value="Выбор токена / Token selection" style="text;strokeColor=none;fillColor=none;align=left;verticalAlign=middle;spacingLeft=4;spacingRight=4;overflow=hidden;points=[[0,0.5],[1,0.5]];portConstraint=eastwest;rotatable=0;whiteSpace=wrap;html=1;" vertex="1" parent="AYj9zMjsYxJNHYWbNuNB-13">
          <mxGeometry y="40" width="280" height="30" as="geometry" />
        </mxCell>
        <mxCell id="AYj9zMjsYxJNHYWbNuNB-15" value="Выбор блокчейна / Blockchain selection" style="text;strokeColor=none;fillColor=none;align=left;verticalAlign=middle;spacingLeft=4;spacingRight=4;overflow=hidden;points=[[0,0.5],[1,0.5]];portConstraint=eastwest;rotatable=0;whiteSpace=wrap;html=1;" vertex="1" parent="AYj9zMjsYxJNHYWbNuNB-13">
          <mxGeometry y="70" width="280" height="40" as="geometry" />
        </mxCell>
        <mxCell id="AYj9zMjsYxJNHYWbNuNB-16" value="Выбор провайдера /&amp;nbsp; Provider KYC/AML selection" style="text;strokeColor=none;fillColor=none;align=left;verticalAlign=middle;spacingLeft=4;spacingRight=4;overflow=hidden;points=[[0,0.5],[1,0.5]];portConstraint=eastwest;rotatable=0;whiteSpace=wrap;html=1;fontColor=#000000;" vertex="1" parent="AYj9zMjsYxJNHYWbNuNB-13">
          <mxGeometry y="110" width="280" height="40" as="geometry" />
        </mxCell>
        <mxCell id="AYj9zMjsYxJNHYWbNuNB-33" value="Смарт-контракт / Smart contract" style="text;strokeColor=none;fillColor=none;align=left;verticalAlign=middle;spacingLeft=4;spacingRight=4;overflow=hidden;points=[[0,0.5],[1,0.5]];portConstraint=eastwest;rotatable=0;whiteSpace=wrap;html=1;fontColor=#000000;" vertex="1" parent="AYj9zMjsYxJNHYWbNuNB-13">
          <mxGeometry y="150" width="280" height="40" as="geometry" />
        </mxCell>
        <mxCell id="AYj9zMjsYxJNHYWbNuNB-17" value="Выбор аудитора /&amp;nbsp; Oracle selection" style="text;strokeColor=none;fillColor=none;align=left;verticalAlign=middle;spacingLeft=4;spacingRight=4;overflow=hidden;points=[[0,0.5],[1,0.5]];portConstraint=eastwest;rotatable=0;whiteSpace=wrap;html=1;fontColor=#000000;" vertex="1" parent="AYj9zMjsYxJNHYWbNuNB-13">
          <mxGeometry y="190" width="280" height="40" as="geometry" />
        </mxCell>
        <mxCell id="AYj9zMjsYxJNHYWbNuNB-18" value="Токен обеспечен средствами или самим активом / Finance or RWA backed token" style="text;strokeColor=none;fillColor=none;align=left;verticalAlign=middle;spacingLeft=4;spacingRight=4;overflow=hidden;points=[[0,0.5],[1,0.5]];portConstraint=eastwest;rotatable=0;whiteSpace=wrap;html=1;fontColor=#000000;" vertex="1" parent="AYj9zMjsYxJNHYWbNuNB-13">
          <mxGeometry y="230" width="280" height="40" as="geometry" />
        </mxCell>
        <mxCell id="AYj9zMjsYxJNHYWbNuNB-20" value="&lt;font style=&quot;font-size: 12px;&quot;&gt;&amp;nbsp;&lt;span style=&quot;font-family: arial, sans-serif; background-color: rgb(255, 255, 255);&quot;&gt;Proof of Reserve&lt;/span&gt;&lt;/font&gt;" style="text;strokeColor=none;fillColor=none;align=left;verticalAlign=middle;spacingLeft=4;spacingRight=4;overflow=hidden;points=[[0,0.5],[1,0.5]];portConstraint=eastwest;rotatable=0;whiteSpace=wrap;html=1;fontColor=#000000;" vertex="1" parent="AYj9zMjsYxJNHYWbNuNB-13">
          <mxGeometry y="270" width="280" height="50" as="geometry" />
        </mxCell>
        <mxCell id="AYj9zMjsYxJNHYWbNuNB-22" value="&lt;b&gt;Оцифровка актива / Real estate digitizing&lt;/b&gt;" style="swimlane;fontStyle=0;childLayout=stackLayout;horizontal=1;startSize=40;horizontalStack=0;resizeParent=1;resizeParentMax=0;resizeLast=0;collapsible=1;marginBottom=0;whiteSpace=wrap;html=1;" vertex="1" parent="1">
          <mxGeometry x="440" y="40" width="280" height="240" as="geometry" />
        </mxCell>
        <mxCell id="AYj9zMjsYxJNHYWbNuNB-23" value="&lt;font&gt;Структура фонда недвижимости /&amp;nbsp;Real estate fund Structure&lt;/font&gt;" style="text;strokeColor=none;fillColor=none;align=left;verticalAlign=middle;spacingLeft=4;spacingRight=4;overflow=hidden;points=[[0,0.5],[1,0.5]];portConstraint=eastwest;rotatable=0;whiteSpace=wrap;html=1;fontColor=#000000;" vertex="1" parent="AYj9zMjsYxJNHYWbNuNB-22">
          <mxGeometry y="40" width="280" height="30" as="geometry" />
        </mxCell>
        <mxCell id="AYj9zMjsYxJNHYWbNuNB-24" value="&lt;font&gt;Финансовая структура /&amp;nbsp;Finance Structure&lt;/font&gt;" style="text;strokeColor=none;fillColor=none;align=left;verticalAlign=middle;spacingLeft=4;spacingRight=4;overflow=hidden;points=[[0,0.5],[1,0.5]];portConstraint=eastwest;rotatable=0;whiteSpace=wrap;html=1;fontColor=#000000;" vertex="1" parent="AYj9zMjsYxJNHYWbNuNB-22">
          <mxGeometry y="70" width="280" height="30" as="geometry" />
        </mxCell>
        <mxCell id="AYj9zMjsYxJNHYWbNuNB-25" value="Тип инвестирования дробное или полное / Fractional or not investment&amp;nbsp;" style="text;strokeColor=none;fillColor=none;align=left;verticalAlign=middle;spacingLeft=4;spacingRight=4;overflow=hidden;points=[[0,0.5],[1,0.5]];portConstraint=eastwest;rotatable=0;whiteSpace=wrap;html=1;" vertex="1" parent="AYj9zMjsYxJNHYWbNuNB-22">
          <mxGeometry y="100" width="280" height="40" as="geometry" />
        </mxCell>
        <mxCell id="AYj9zMjsYxJNHYWbNuNB-50" value="Идентификация актива / Asset identification" style="text;strokeColor=none;fillColor=none;align=left;verticalAlign=middle;spacingLeft=4;spacingRight=4;overflow=hidden;points=[[0,0.5],[1,0.5]];portConstraint=eastwest;rotatable=0;whiteSpace=wrap;html=1;" vertex="1" parent="AYj9zMjsYxJNHYWbNuNB-22">
          <mxGeometry y="140" width="280" height="30" as="geometry" />
        </mxCell>
        <mxCell id="AYj9zMjsYxJNHYWbNuNB-52" value="Проверка права собственности / Asset ownership verification" style="text;strokeColor=none;fillColor=none;align=left;verticalAlign=middle;spacingLeft=4;spacingRight=4;overflow=hidden;points=[[0,0.5],[1,0.5]];portConstraint=eastwest;rotatable=0;whiteSpace=wrap;html=1;" vertex="1" parent="AYj9zMjsYxJNHYWbNuNB-22">
          <mxGeometry y="170" width="280" height="30" as="geometry" />
        </mxCell>
        <mxCell id="AYj9zMjsYxJNHYWbNuNB-51" value="Оценка актива / Asset evaluation" style="text;strokeColor=none;fillColor=none;align=left;verticalAlign=middle;spacingLeft=4;spacingRight=4;overflow=hidden;points=[[0,0.5],[1,0.5]];portConstraint=eastwest;rotatable=0;whiteSpace=wrap;html=1;" vertex="1" parent="AYj9zMjsYxJNHYWbNuNB-22">
          <mxGeometry y="200" width="280" height="40" as="geometry" />
        </mxCell>
        <mxCell id="AYj9zMjsYxJNHYWbNuNB-28" value="&lt;b&gt;Поддержка деятельности / Support&lt;/b&gt;" style="swimlane;fontStyle=0;childLayout=stackLayout;horizontal=1;startSize=40;horizontalStack=0;resizeParent=1;resizeParentMax=0;resizeLast=0;collapsible=1;marginBottom=0;whiteSpace=wrap;html=1;" vertex="1" parent="1">
          <mxGeometry x="800" y="40" width="280" height="120" as="geometry" />
        </mxCell>
        <mxCell id="AYj9zMjsYxJNHYWbNuNB-36" value="Оплата налогов / Taxes pay" style="text;strokeColor=none;fillColor=none;align=left;verticalAlign=middle;spacingLeft=4;spacingRight=4;overflow=hidden;points=[[0,0.5],[1,0.5]];portConstraint=eastwest;rotatable=0;whiteSpace=wrap;html=1;fontColor=#000000;" vertex="1" parent="AYj9zMjsYxJNHYWbNuNB-28">
          <mxGeometry y="40" width="280" height="40" as="geometry" />
        </mxCell>
        <mxCell id="AYj9zMjsYxJNHYWbNuNB-53" value="Страхование / Insurance" style="text;strokeColor=none;fillColor=none;align=left;verticalAlign=middle;spacingLeft=4;spacingRight=4;overflow=hidden;points=[[0,0.5],[1,0.5]];portConstraint=eastwest;rotatable=0;whiteSpace=wrap;html=1;fontColor=#000000;" vertex="1" parent="AYj9zMjsYxJNHYWbNuNB-28">
          <mxGeometry y="80" width="280" height="40" as="geometry" />
        </mxCell>
        <mxCell id="AYj9zMjsYxJNHYWbNuNB-37" value="&lt;b&gt;Юрисдикция / Jurisdiction&lt;/b&gt;" style="swimlane;fontStyle=0;childLayout=stackLayout;horizontal=1;startSize=40;horizontalStack=0;resizeParent=1;resizeParentMax=0;resizeLast=0;collapsible=1;marginBottom=0;whiteSpace=wrap;html=1;" vertex="1" parent="1">
          <mxGeometry x="80" y="40" width="280" height="140" as="geometry" />
        </mxCell>
        <mxCell id="AYj9zMjsYxJNHYWbNuNB-38" value="Требования / Requirements KYC/AML" style="text;strokeColor=none;fillColor=none;align=left;verticalAlign=middle;spacingLeft=4;spacingRight=4;overflow=hidden;points=[[0,0.5],[1,0.5]];portConstraint=eastwest;rotatable=0;whiteSpace=wrap;html=1;" vertex="1" parent="AYj9zMjsYxJNHYWbNuNB-37">
          <mxGeometry y="40" width="280" height="40" as="geometry" />
        </mxCell>
        <mxCell id="AYj9zMjsYxJNHYWbNuNB-39" value="Возможность перевода актива в цифровой вид / Tokenization possibility" style="text;strokeColor=none;fillColor=none;align=left;verticalAlign=middle;spacingLeft=4;spacingRight=4;overflow=hidden;points=[[0,0.5],[1,0.5]];portConstraint=eastwest;rotatable=0;whiteSpace=wrap;html=1;" vertex="1" parent="AYj9zMjsYxJNHYWbNuNB-37">
          <mxGeometry y="80" width="280" height="60" as="geometry" />
        </mxCell>
        <mxCell id="AYj9zMjsYxJNHYWbNuNB-41" style="edgeStyle=orthogonalEdgeStyle;rounded=0;orthogonalLoop=1;jettySize=auto;html=1;exitX=1;exitY=0.14;exitDx=0;exitDy=0;entryX=-0.011;entryY=0.079;entryDx=0;entryDy=0;entryPerimeter=0;exitPerimeter=0;" edge="1" parent="1" source="AYj9zMjsYxJNHYWbNuNB-37" target="AYj9zMjsYxJNHYWbNuNB-22">
          <mxGeometry relative="1" as="geometry" />
        </mxCell>
        <mxCell id="AYj9zMjsYxJNHYWbNuNB-42" style="edgeStyle=orthogonalEdgeStyle;rounded=0;orthogonalLoop=1;jettySize=auto;html=1;entryX=0.5;entryY=0;entryDx=0;entryDy=0;exitX=1.001;exitY=0.081;exitDx=0;exitDy=0;exitPerimeter=0;" edge="1" parent="1" source="AYj9zMjsYxJNHYWbNuNB-22" target="AYj9zMjsYxJNHYWbNuNB-13">
          <mxGeometry relative="1" as="geometry">
            <mxPoint x="730" y="80" as="sourcePoint" />
            <Array as="points">
              <mxPoint x="740" y="60" />
              <mxPoint x="740" y="320" />
              <mxPoint x="220" y="320" />
            </Array>
          </mxGeometry>
        </mxCell>
        <mxCell id="AYj9zMjsYxJNHYWbNuNB-43" style="edgeStyle=orthogonalEdgeStyle;rounded=0;orthogonalLoop=1;jettySize=auto;html=1;entryX=0.002;entryY=0.101;entryDx=0;entryDy=0;entryPerimeter=0;" edge="1" parent="1" target="AYj9zMjsYxJNHYWbNuNB-7">
          <mxGeometry relative="1" as="geometry">
            <mxPoint x="360" y="414" as="sourcePoint" />
            <mxPoint x="440" y="412" as="targetPoint" />
            <Array as="points">
              <mxPoint x="360" y="414" />
              <mxPoint x="370" y="414" />
            </Array>
          </mxGeometry>
        </mxCell>
        <mxCell id="AYj9zMjsYxJNHYWbNuNB-44" style="edgeStyle=orthogonalEdgeStyle;rounded=0;orthogonalLoop=1;jettySize=auto;html=1;" edge="1" parent="1">
          <mxGeometry relative="1" as="geometry">
            <mxPoint x="720" y="409" as="sourcePoint" />
            <mxPoint x="800" y="60" as="targetPoint" />
            <Array as="points">
              <mxPoint x="780" y="409" />
              <mxPoint x="780" y="60" />
            </Array>
          </mxGeometry>
        </mxCell>
      </root>
    </mxGraphModel>
  </diagram>
</mxfile>
